<svg id="Layer_1" data-name="Layer 1" xmlns="http://www.w3.org/2000/svg" width="82.39mm" height="19.37mm" viewBox="0 0 233.55 54.9"><defs><style>.cls-1{fill:#f58043;}.cls-2{fill:#f7911e;}.cls-2,.cls-3,.cls-4{fill-rule:evenodd;}.cls-3{fill:#fedc00;}.cls-4,.cls-7{fill:#fff;}.cls-5{fill:#010101;}.cls-6{fill:#070707;}.cls-7{font-size:28.83px;font-family:AntarcticanHeadline-Bold, Antarctican Headline;font-weight:700;}</style></defs><g id="Buy_me_a_coffee" data-name="Buy me a coffee"><rect class="cls-1" width="233.55" height="54.9" rx="11.88"/><g id="Canvas"><g id="Page_1" data-name="Page 1"><g id="Fill_1" data-name="Fill 1"><path id="path0_fill" data-name="path0 fill" class="cls-2" d="M29.64,17.54l-8.48-.06,4.16,26.3H35.48l4.16-26.3Z"/></g><g id="Fill_2" data-name="Fill 2"><path id="path1_fill" data-name="path1 fill" class="cls-3" d="M29.64,17.54l-8.48-.06,4.16,26.3h8l4.17-26.3Z"/></g><g id="Fill_3" data-name="Fill 3"><path id="path2_fill" data-name="path2 fill" class="cls-4" d="M18.73,17.48h21.9V15.06H18.73Z"/></g><g id="Stroke_4" data-name="Stroke 4"><path id="path3_stroke" data-name="path3 stroke" class="cls-5" d="M18.73,17.48h-.57v.57h.57Zm21.9,0v.57h.57v-.57Zm0-2.42h.57v-.57h-.57Zm-21.9,0v-.57h-.57v.57Zm0,3h21.9V16.92H18.73Zm22.47-.57V15.06H40.06v2.42Zm-.57-3H18.73v1.14h21.9Zm-22.47.57v2.42H19.3V15.06Z"/></g><g id="Fill_6" data-name="Fill 6"><path id="path4_fill" data-name="path4 fill" class="cls-4" d="M36.38,11.12H22.82l-1.59,3.64H38Z"/></g><g id="Group_11" data-name="Group 11"><g id="Stroke_7" data-name="Stroke 7"><path id="path5_stroke" data-name="path5 stroke" class="cls-6" d="M36.38,11.12l.53-.23-.15-.34h-.38Zm-13.56,0v-.57h-.37l-.15.34Zm-1.59,3.64-.52-.23-.35.79h.87Zm16.75,0v.56h.86l-.34-.79Zm-1.6-4.21H31.16v1.14h5.22Zm-5.22,0H28.05v1.14h3.11Zm-3.11,0H22.82v1.14h5.23Zm-5.75.34-1.59,3.64,1,.45,1.59-3.63Zm-1.07,4.43h6.82V14.19H21.23Zm6.82,0h3.11V14.19H28.05Zm3.11,0H38V14.19H31.16Zm7.34-.79-1.59-3.64-1,.46L37.45,15Z"/></g><g id="Stroke_9" data-name="Stroke 9"><path id="path6_stroke" data-name="path6 stroke" class="cls-5" d="M29.64,17.54v.56h0Zm-10-.06v-.56H19l.1.66Zm4.17,26.3-.56.09.07.48h.49Zm11.67,0v.57H36l.08-.48Zm4.16-26.3.56.09.11-.66h-.67Zm-10-.51-10,0v1.13l10,.05Zm-10.57.6,4.17,26.3,1.12-.18L20.2,17.4Zm4.73,26.78h.91V43.21h-.91Zm.91,0h9.85V43.21H24.72Zm9.85,0h.91V43.21h-.91ZM36,43.87l4.16-26.3-1.12-.17L34.91,43.69Zm3.6-26.95-10,0V18.1l10-.05Z"/></g></g><g id="Fill_12" data-name="Fill 12"><path id="path7_fill" data-name="path7 fill" class="cls-4" d="M40,24.91H19.26l1.87,10.46,8.47-.09,8.48.09Z"/></g><g id="Stroke_13" data-name="Stroke 13"><path id="path8_stroke" data-name="path8 stroke" class="cls-5" d="M40,24.91l.55.1.12-.67H40Zm-20.69,0v-.57h-.68l.12.67Zm1.87,10.46-.56.1.09.47h.48Zm8.47-.09v-.57h0Zm8.48.09v.57h.48l.09-.47Zm1.87-11H30v1.14H40Zm-10,0h-.71v1.14H30Zm-.71,0h-10v1.14h10ZM18.7,25l1.87,10.46,1.12-.2L19.82,24.81Zm2.44,10.93,8.47-.1V34.71l-8.48.09Zm8.46-.1,8.47.1V34.8l-8.47-.09Zm9-.37L40.5,25l-1.11-.2L37.52,35.27Z"/></g></g></g><text class="cls-7" transform="translate(55.33 36)">Buy me a coffee</text></g></svg>