<svg id="Layer_1" data-name="Layer 1" xmlns="http://www.w3.org/2000/svg" width="110.13mm" height="19.37mm" viewBox="0 0 312.18 54.9"><defs><style>.cls-1{fill:#282828;}.cls-2{font-size:23.29px;fill:#fff;font-family:AntarcticanHeadline-Bold, Antarctican Headline;font-weight:700;}.cls-3{letter-spacing:-0.01em;}.cls-4{fill:#bad3ee;}.cls-5{fill:#86acdb;}</style></defs><g id="Open_Collective" data-name="Open Collective"><rect class="cls-1" width="312.18" height="54.9" rx="11.88"/><text class="cls-2" transform="translate(63.53 33.44)">Contribute to our Collecti<tspan class="cls-3" x="213.29" y="0">v</tspan><tspan x="222.04" y="0">e</tspan></text><path class="cls-4" d="M45.75,27.45a11.82,11.82,0,0,1-1.87,6.3l4.73,4.73a18.25,18.25,0,0,0,3.64-10.94A17.73,17.73,0,0,0,48.51,16.6l-4.64,4.63a11.17,11.17,0,0,1,1.88,6.21Z"/><path class="cls-5" d="M34.12,39.08a11.64,11.64,0,0,1,0-23.27,11.38,11.38,0,0,1,6.31,1.88l4.63-4.63A18.24,18.24,0,0,0,34.12,9.41a18,18,0,0,0,0,36.08,17.72,17.72,0,0,0,10.94-3.75L40.33,37a9.63,9.63,0,0,1-6.21,2.07Z"/></g></svg>