<svg id="Layer_1" data-name="Layer 1" xmlns="http://www.w3.org/2000/svg" width="91.07mm" height="19.37mm" viewBox="0 0 258.16 54.9"><defs><style>.cls-1{fill:#26aae0;}.cls-2{font-size:23.29px;font-family:AntarcticanHeadline-Bold, Antarctican Headline;font-weight:700;}.cls-2,.cls-4{fill:#fff;}.cls-3{letter-spacing:-0.02em;}.cls-5{fill:#f15f5e;}</style></defs><g id="Ko-Fi"><rect class="cls-1" width="258.16" height="54.9" rx="11.88"/><text class="cls-2" transform="translate(75.53 34.27)">Support me on <tspan class="cls-3" x="125.2" y="0">K</tspan><tspan x="135.37" y="0">o-Fi</tspan></text><path class="cls-4" d="M50.89,12h3.16a11,11,0,0,1,11,11v.65a11,11,0,0,1-11,11H50.89V38a5.09,5.09,0,0,1-5.09,5.09h-24A5.09,5.09,0,0,1,16.66,38V14.53A2.54,2.54,0,0,1,19.2,12Zm0,5.89V28.82h2.89a5.47,5.47,0,0,0,0-10.94Z"/><path class="cls-5" d="M33.09,22.36c.79-2.3,2.65-3.46,5.59-3.46,4.42,0,6,5.5,3.74,9.09q-2.31,3.59-9.33,9.08-7-5.49-9.33-9.08c-2.31-3.59-.68-9.09,3.74-9.09C30.44,18.9,32.3,20.06,33.09,22.36Z"/></g></svg>