<?xml version="1.0" encoding="UTF-8"?>
<svg enable-background="new 0 0 352.33 352.33" version="1.1" viewBox="0 0 352.33 352.33" xml:space="preserve" xmlns="http://www.w3.org/2000/svg" xmlns:cc="http://creativecommons.org/ns#" xmlns:dc="http://purl.org/dc/elements/1.1/" xmlns:rdf="http://www.w3.org/1999/02/22-rdf-syntax-ns#"><metadata><rdf:RDF><cc:Work rdf:about=""><dc:format>image/svg+xml</dc:format><dc:type rdf:resource="http://purl.org/dc/dcmitype/StillImage"/></cc:Work></rdf:RDF></metadata><defs><clipPath id="b"><circle cx="177.29" cy="170.33" r="177.29" stroke-width="1.0085"/></clipPath><clipPath id="a"><circle cx="175.79" cy="175.79" r="175.79"/></clipPath></defs>
  <path d="m352.26 176.17c0 97.268-78.854 176.12-176.12 176.12-13.187 0-26.033-1.4491-38.392-4.2025-78.812-17.514-137.74-87.838-137.74-171.92 0-6.1174 0.31053-12.162 0.92124-18.114 9.0674-88.77 84.05-158.02 175.21-158.02 97.268 0 176.12 78.854 176.12 176.13z" clip-path="url(#a)" fill="#59aad8" stroke-width="1.0351"/>
  <g transform="matrix(.99153 0 0 .99153 0 6.9005)" clip-path="url(#b)"><path d="m181.54 206.89c-8.41 43.47-6.84 74.52-4.05 92.91-10.88 12.73-22.86 24.57-35.86 35.36l-8.56 7.1c-25.59-5.69-49-17.13-68.82-32.92-39.15-31.16-64.25-79.24-64.25-133.17 0-5.91 0.3-11.75 0.89-17.5 10.22-3.82 20.75-7.15 30.81-10 18.48-5.23 36.01-13.14 52.08-23.4 12.12-7.73 23.4-16.79 33.61-27.04 4.69-4.7 9.66-9.11 14.87-13.16 0 0 63.77 46.99 49.28 121.82z" fill="#e6e6e6"/><path d="m283.53 122.4c42.243 4.828 68.796 38.622 68.796 38.622s-60.951-21.121-105-21.725z" fill="#808080"/><path d="m352.33 161.02c-17.477 5.89-46.878 4.333-70.135 1.666-5.914-0.676-11.719-0.133-17.163 1.448l-17.706-24.839c44.053 0.603 105 21.725 105 21.725z" fill="#4d4d4d"/><path d="m228.02 64.47c56.726 19.311 55.519 57.933 55.519 57.933l-36.208 16.897 17.706 24.839c-13.397 3.923-24.489 14.206-29.003 28.182l-2.185 6.759c-12.009 37.113-31.212 71.306-56.352 100.72-2.788-18.394-4.357-49.436 4.055-92.91 14.483-74.83-49.279-121.82-49.279-121.82 27.337-21.242 61.325-32.322 95.747-20.602z" fill="#666"/><circle cx="240.69" cy="114.56" r="10.259" fill="#4d4d4d"/><path d="m64.25 309.33v0.01c-39.15-31.16-64.25-79.24-64.25-133.17 0-5.91 0.3-11.75 0.89-17.5 10.22-3.82 20.75-7.15 30.81-10 18.48-5.23 36.01-13.14 52.08-23.4 0 0 20.55 94.96-19.53 184.06z" fill="#666"/></g>
</svg>
